<svg width="200" height="200" viewBox="0 0 200 200" fill="none" xmlns="http://www.w3.org/2000/svg">
<path fill-rule="evenodd" clip-rule="evenodd" d="M31.424 121.334C31.424 83.4359 62.1923 52.6676 100.09 52.6676C137.988 52.6676 168.756 83.4359 168.756 121.334C168.756 159.232 137.988 190 100.09 190C62.1923 190 31.424 159.232 31.424 121.334ZM37.7438 121.372C37.7438 86.9831 65.6632 59.0637 100.052 59.0637C134.441 59.0637 162.36 86.9831 162.36 121.372C162.36 155.761 134.441 183.68 100.052 183.68C65.6632 183.68 37.7438 155.761 37.7438 121.372Z" fill="white"/>
<path fill-rule="evenodd" clip-rule="evenodd" d="M155.637 47.4295L141.621 72.6653L147.33 75.836L161.346 50.6002L155.637 47.4295Z" fill="white"/>
<path fill-rule="evenodd" clip-rule="evenodd" d="M152.159 24.3103C149.618 23.3527 147.702 21.0218 147.414 18.1383C147.01 14.0885 149.969 10.4724 154.019 10.0681C158.069 9.66393 161.685 12.6237 162.089 16.6735C162.377 19.557 160.96 22.2206 158.657 23.6616L161.346 50.6002L154.848 51.2492L152.159 24.3103Z" fill="white"/>
<path fill-rule="evenodd" clip-rule="evenodd" d="M121.334 168.576C83.4359 168.576 52.6676 137.808 52.6676 99.9099C52.6676 62.0119 83.4359 31.2437 121.334 31.2437C159.232 31.2436 190 62.0119 190 99.9099C190 137.808 159.232 168.576 121.334 168.576ZM121.372 162.256C86.9831 162.256 59.0637 134.337 59.0637 99.9479C59.0637 65.5591 86.9831 37.6398 121.372 37.6398C155.761 37.6398 183.68 65.5591 183.68 99.9479C183.68 134.337 155.761 162.256 121.372 162.256Z" fill="white"/>
<path fill-rule="evenodd" clip-rule="evenodd" d="M47.4295 44.3628L72.6653 58.379L75.836 52.6702L50.6002 38.6541L47.4295 44.3628Z" fill="white"/>
<path fill-rule="evenodd" clip-rule="evenodd" d="M24.3103 47.8407C23.3527 50.3825 21.0218 52.2985 18.1383 52.5863C14.0885 52.9905 10.4724 50.0308 10.0681 45.9809C9.66393 41.9311 12.6237 38.315 16.6735 37.9107C19.557 37.6229 22.2206 39.0405 23.6616 41.3428L50.6002 38.6541L51.2492 45.1518L24.3103 47.8407Z" fill="white"/>
<path fill-rule="evenodd" clip-rule="evenodd" d="M168.576 78.6662C168.576 116.564 137.808 147.332 99.9099 147.332C62.0119 147.332 31.2437 116.564 31.2437 78.6662C31.2436 40.7683 62.0119 10 99.9099 10C137.808 9.99999 168.576 40.7683 168.576 78.6662ZM162.256 78.6281C162.256 113.017 134.337 140.936 99.9479 140.936C65.5591 140.936 37.6398 113.017 37.6398 78.6281C37.6397 44.2393 65.5591 16.3199 99.9479 16.3199C134.337 16.3198 162.256 44.2393 162.256 78.6281Z" fill="white"/>
<path fill-rule="evenodd" clip-rule="evenodd" d="M44.3628 152.57L58.379 127.335L52.6702 124.164L38.6541 149.4L44.3628 152.57Z" fill="white"/>
<path fill-rule="evenodd" clip-rule="evenodd" d="M47.8407 175.69C50.3825 176.647 52.2985 178.978 52.5863 181.862C52.9905 185.911 50.0308 189.528 45.9809 189.932C41.9311 190.336 38.315 187.376 37.9107 183.326C37.6229 180.443 39.0405 177.779 41.3428 176.338L38.6541 149.4L45.1518 148.751L47.8407 175.69Z" fill="white"/>
<path fill-rule="evenodd" clip-rule="evenodd" d="M78.6662 31.424C116.564 31.424 147.332 62.1923 147.332 100.09C147.332 137.988 116.564 168.756 78.6662 168.756C40.7683 168.756 10 137.988 10 100.09C10 62.1923 40.7683 31.424 78.6662 31.424ZM78.6281 37.7438C113.017 37.7438 140.936 65.6632 140.936 100.052C140.936 134.441 113.017 162.36 78.6281 162.36C44.2393 162.36 16.3199 134.441 16.3199 100.052C16.3199 65.6632 44.2393 37.7438 78.6281 37.7438Z" fill="white"/>
<path fill-rule="evenodd" clip-rule="evenodd" d="M152.57 155.637L127.335 141.621L124.164 147.33L149.4 161.346L152.57 155.637Z" fill="white"/>
<path fill-rule="evenodd" clip-rule="evenodd" d="M175.69 152.159C176.647 149.618 178.978 147.701 181.862 147.414C185.911 147.009 189.528 149.969 189.932 154.019C190.336 158.069 187.376 161.685 183.326 162.089C180.443 162.377 177.779 160.96 176.338 158.657L149.4 161.346L148.751 154.848L175.69 152.159Z" fill="white"/>
</svg>
