<?xml version="1.0" encoding="UTF-8"?>
<svg xmlns="http://www.w3.org/2000/svg" xmlns:xlink="http://www.w3.org/1999/xlink" height="57" viewBox="0 0 242 57" width="242">
  <mask id="a" fill="#fff">
    <path d="m0 56.9049379h241.912398v-56.90446606h-241.912398z" fill="#fff" fill-rule="evenodd"></path>
  </mask>
  <g fill="none" fill-rule="evenodd">
    <g fill="#007b91">
      <path d="m85.3579966 22.8442413h4.2973252v8.4365825c-2.3214757 1.6939223-5.8650291 2.8546602-8.9072475 2.8546602-6.6482913 0-11.6982088-4.8305097-11.6982088-11.1968738 0-6.3356942 5.1419272-11.1343544 11.980136-11.1343544 3.2616262 0 6.5857718 1.2551068 8.8128786 3.2002864l-2.7909612 3.5435534c-1.6314029-1.5051844-3.888-2.4465145-6.0219174-2.4465145-3.8891797 0-6.9007282 2.979699-6.9007282 6.8370291 0 3.888 3.0433981 6.8688786 6.9313981 6.8688786 1.3176262 0 2.8865097-.470665 4.2973252-1.1925873z"></path>
      <path d="m100.913064 23.5027005h4.579252c2.727262 0 4.294966-1.2539272 4.294966-3.7629612 0-2.4476942-1.567704-3.6697718-4.294966-3.6697718h-4.579252zm8.529771 10.412432-3.482213-6.2719951h-.468306-4.579252v6.2719951h-4.9543693v-21.9537524h9.5336213c5.737631 0 9.000437 2.7602913 9.000437 7.6214709 0 3.386665-1.443845 5.8331796-4.109767 7.0871068l4.672442 7.2451747z"></path>
      <path d="m133.466334 25.6665801-3.450364-8.5309515-3.481034 8.5309515zm1.598374 3.9835485h-10.159995l-1.725772 4.2654758h-5.111257l9.533621-21.9549321h5.110078l9.379092 21.9549321h-5.301175z"></path>
      <path d="m151.465793 11.961734 6.398213 13.4239806 6.365185-13.4239806h5.520582v21.9537524h-4.453034v-14.8029466l-5.834359 12.5758398h-3.229777l-5.833179-12.5758398v14.8029466h-4.483704v-21.9537524z"></path>
      <path d="m192.831706 11.961734v4.1085874h-11.763087v4.7668106h10.57168v4.1085874h-10.57168v4.8623592h12.107534v4.1074078h-17.060723v-21.9537524z"></path>
      <path d="m216.132457 11.961734v4.1085874h-11.761907v4.7668106h10.5705v4.1085874h-10.5705v4.8623592h12.106354v4.1074078h-17.060723v-21.9537524z"></path>
      <path d="m226.545125 11.961734 10.66369 14.1128738v-14.1128738h4.703111v21.9537524h-4.516733l-10.63066-14.0810243v14.0810243h-4.734961v-21.9537524z"></path>
      <path d="m81.0370791 40.2730034-.0176941 1.8909175h-6.2601991v3.6013543h5.6715728v1.8720437h-5.6715728v5.118335h-2.1020679v-12.4826505z"></path>
      <path d="m89.1952733 46.5137388c0 2.4783641 2.050165 4.4412379 4.4943204 4.4412379 2.4429757 0 4.4400582-1.9628738 4.4400582-4.4412379 0-2.478364-1.9970825-4.4046699-4.4400582-4.4046699-2.4606699 0-4.4943204 1.9263059-4.4943204 4.4046699m11.0918887 0c0 3.5659661-2.8888693 6.3297962-6.6164421 6.3297962-3.7263932 0-6.6152621-2.7638301-6.6152621-6.3297962 0-3.5848398 2.8888689-6.2955873 6.6152621-6.2955873 3.7275728 0 6.6164421 2.7308009 6.6164421 6.2955873"></path>
      <path d="m112.790927 50.9545049c2.03483 0 3.298194-1.2492088 3.298194-3.3713301v-7.3100534h2.105607v7.3100534c0 3.2639854-2.050165 5.2610679-5.421495 5.2610679-3.37015 0-5.439189-1.9970825-5.439189-5.2610679v-7.3100534h2.104427v7.3100534c0 2.1056068 1.302291 3.3713301 3.352456 3.3713301"></path>
      <path d="m129.200623 40.2730034 6.687218 8.9709466v-8.9709466h2.069039v12.4826505h-2.069039l-6.653009-8.9520728v8.9520728h-2.103248v-12.4826505z"></path>
      <path d="m156.968799 46.5321408c0-2.5503204-1.907432-4.3692816-4.368102-4.3692816h-2.978519v8.7019952h3.06699c2.426461 0 4.279631-1.801267 4.279631-4.3327136m2.123301-.0176942c0 3.6013544-2.729621 6.2401456-6.510277 6.2401456h-5.064073v-12.4814708h5.117156c3.746446 0 6.457194 2.621097 6.457194 6.2413252"></path>
      <path d="m173.252984 48.0648102-2.353325-5.5453544-2.354505 5.5453544zm.802136 1.8732233h-6.294408l-1.194946 2.8169126h-2.192899l5.511146-12.4826505h2.15633l5.459243 12.4826505h-2.249519z"></path>
      <path d="m191.59335 40.2730034v1.8909175h-3.957597v10.591733h-2.105607v-10.591733h-3.939903v-1.8909175z"></path>
      <path d="m199.53249 52.7562437h2.104427v-12.4826505h-2.104427z" mask="url(#a)"></path>
      <path d="m212.3137 46.5137388c0 2.4783641 2.051345 4.4412379 4.494321 4.4412379 2.441796 0 4.440058-1.9628738 4.440058-4.4412379 0-2.478364-1.998262-4.4046699-4.440058-4.4046699-2.46067 0-4.494321 1.9263059-4.494321 4.4046699m11.091889 0c0 3.5659661-2.888869 6.3297962-6.615262 6.3297962-3.727573 0-6.616442-2.7638301-6.616442-6.3297962 0-3.5848398 2.888869-6.2955873 6.616442-6.2955873 3.726393 0 6.615262 2.7308009 6.615262 6.2955873" mask="url(#a)"></path>
      <path d="m232.591815 40.2730034 6.687218 8.9709466v-8.9709466h2.067859v12.4826505h-2.067859l-6.65183-8.9520728v8.9520728h-2.104427v-12.4826505z" mask="url(#a)"></path>
    </g>
    <path d="m56.904584 29.7808296c-14.674369.6735583-26.4492524 12.4496214-27.1239903 27.1239903 14.6743689-.6747379 26.4492524-12.4496214 27.1239903-27.1239903" fill="#689431" mask="url(#a)"></path>
    <path d="m-.00023592 29.7808296c.67355825 14.6743689 12.45080092 26.4492524 27.12399032 27.1239903-.6747379-14.6743689-12.4496214-26.450432-27.12399032-27.1239903" fill="#ed680f" mask="url(#a)"></path>
    <path d="m27.1239903-.00035388c-14.6743689.67473786-26.45043205 12.44962138-27.1239903 27.12399028 14.6743689-.6735582 26.4492524-12.4496214 27.1239903-27.12399028" fill="#007b91" mask="url(#a)"></path>
    <path d="m54.1328505 11.6201184c0 4.8859515-3.9611359 8.8470874-8.8470874 8.8470874-4.8883107 0-8.848267-3.9611359-8.848267-8.8470874 0-4.88713102 3.9599563-8.84826694 8.848267-8.84826694 4.8859515 0 8.8470874 3.96113592 8.8470874 8.84826694" fill="#8c2984" mask="url(#a)"></path>
  </g>
</svg>
