<?xml version="1.0" encoding="utf-8"?>
<!-- Generator: Adobe Illustrator 22.1.0, SVG Export Plug-In . SVG Version: 6.00 Build 0)  -->
<svg version="1.1" id="Layer_2" xmlns="http://www.w3.org/2000/svg" xmlns:xlink="http://www.w3.org/1999/xlink" x="0px" y="0px"
	 viewBox="0 0 1184.2 350.4" style="enable-background:new 0 0 1184.2 350.4;" xml:space="preserve">
<style type="text/css">
	.st0{fill:#39B44A;}
	.st1{fill:#231F20;}
	.st2{fill:#40B559;}
</style>
<g>
	<path class="st0" d="M268.5,246.9c-2.5-1.9-4.9-4.1-7.8-5.5c-2.8-1.3-5.9-1.4-8.9-1.5c-0.5,0-1.3,0.3-1.4,1.1c-0.1,0.8,0.4,1,1,1.2
		c1.2,0.2,2.3,0.6,3.5,0.6c3.1,0.1,6,0.9,8.6,2.6c3,2,6,4,9,6c1.1,0.8,2.1,1,3.1,0.1c-0.4,0-0.9,0-1.2-0.2
		C272.5,249.9,270.4,248.5,268.5,246.9"/>
	<path class="st0" d="M260.7,214.8c-1.3,0-1.9,1.3-2.2,2.6c1.6-1.7,3.7-1.8,5.8-1.8C263.4,213.5,261.8,214.7,260.7,214.8"/>
	<path class="st0" d="M50,152.6c0.9,0.8,2.1,1,3.1,1.7c2.1,1.3,5.4,1.1,7.7-0.6c0.6-0.1,1.3-0.1,1.9,0.1c1.4,0.5,1.9,0,1.7-1.4
		c-0.2-2-0.8-3.8-2.5-5.2c-1.4-1.2-1.8-1.2-2.9,0.3c-0.7,1.1-1.5,2-2.8,2.5c-1.1,0.1-2.1,0.7-3.2,0.9c-0.2,0-0.4,0-0.6,0.1
		c-0.8-0.1-1.7-0.3-2.5-0.3c-0.5,0-0.8,0.3-0.7,0.9C49.2,152.2,49.7,152.3,50,152.6"/>
	<path class="st0" d="M62.1,126.2c0.4,0.4,1.1,0.5,1.6,0.5c1,0.1,1.7-0.7,1.4-1.6c-0.7-1.8-1.6-3.5-3.3-4.5c-1.5-0.5-3-0.7-4.4-0.1
		c-0.3,0.1-1.4,0.1-0.6,1.1C58.2,123.5,60.4,124.6,62.1,126.2"/>
	<path class="st0" d="M58.9,129.3c0.1-0.4,0.3-0.9,0.4-1.3c0.1-0.6,0.1-1.2-0.3-1.8c-0.1-0.1-0.2-0.3-0.4-0.4
		c-0.4-0.3-0.9-0.4-1.4-0.1c-0.9,0.6-1.9,0.4-2.9,0.5c-0.9,0.1-2.1-0.5-2.5,0.2c-0.5,0.9,0.6,1.8,1.2,2.6
		C54.3,131.2,57.1,131.3,58.9,129.3"/>
	<path class="st0" d="M58.3,141.5c-0.9,0.1-1.3,0.4-0.7,1.3c0.4,0.8,1.5,0.5,1.9,1.2c0.8,1.1,1.4,0.7,1.9-0.3
		c0.1-0.1,0.1-0.2,0.2-0.3c0.4-0.8,0.5-1.6-0.1-2.3c-0.1-0.1-0.2-0.2-0.3-0.3C60,140.3,59.4,141.9,58.3,141.5"/>
	<path class="st0" d="M265.9,93c2.6-1.2,4.4-3.1,5.9-5.6c0.9-1.5,1.2-3.4,2.6-4.6c2-1.8,2.6-4.1,2.5-6.6c0-0.5,0.1-1.1,0-1.6
		c-0.4-3.1-2.8-5-5.8-4.4c-1.2,0.3-2.5,0.8-3.4,1.6c-2.9,2.7-5.9,5.3-9,7.9c-4.4,3.8-4.2,7.9,0,12C260.8,93.8,263.3,94.2,265.9,93
		 M271.9,78c0.9,0,1.3,0.5,1.3,1.3c0,0.8-0.5,1.4-1.3,1.3c-0.7,0-1.4-0.5-1.4-1.3C270.5,78.6,271.2,78.1,271.9,78 M269,75
		c0.8,0,1.5,0.6,1.4,1.4c0,0.8-0.6,1.3-1.5,1.3c-0.8,0-1.1-0.5-1.2-1.3C268,75.7,268.1,74.9,269,75 M267.3,82c0.4,0,0.7,0.2,0.7,0.6
		c0,0.5-0.3,0.6-0.7,0.7c-0.4,0-0.7-0.2-0.7-0.6C266.6,82.2,266.9,82,267.3,82 M265.7,80.6c0.5,0.1,0.7,0.4,0.7,0.8
		c0,0.4-0.3,0.6-0.6,0.6c-0.4,0-0.7-0.3-0.7-0.7C265.1,80.8,265.4,80.7,265.7,80.6"/>
	<path class="st0" d="M194.8,169c0.4-0.2,0.9-0.3,1.3-0.4c0.4-0.1,0.8-0.2,1.2-0.3c0.8-0.1,1.6-0.4,2.3-0.8c0.1,0,0.1-0.1,0.1-0.2
		c0-0.1-0.1-0.1-0.1-0.2c-0.1,0-0.1,0-0.2,0c-0.9,0-1.7,0.1-2.5,0.3c-0.9,0.2-1.7,0.4-2.5,0.7c-0.5,0.2-0.9,0.3-1.4,0.5
		c-0.2,0.1-0.4,0.2-0.6,0.3c-0.1,0.1-0.4,0.3-0.6,0.3c-3.4,2-6.1,4.8-8.7,7.7c-2.2,2.5-4.1,5.2-5.7,8.1c-0.2,0.3-0.4,0.5-0.8,0.4
		c-0.4-0.1-0.3-0.4-0.3-0.6c0-1.9,0.4-3.8,1-5.6c1.2-3.8,2.2-7.6,2.3-11.6c0.1-2.5-0.7-4.8-0.8-7.3c-0.2-4.3-0.2-8.5,2.1-12.3
		c0.7-1.1,1.6-2,2.5-2.9c1-0.9,1.8-1.9,2.9-2.6c0.4-0.3,0.9-0.6,1-1.1c-0.8-0.1-2.1,0.9-2.7,1.3c-0.7,0.5-1.4,1-2,1.5
		c-3.2,2.6-5,6-5.6,10c-0.1,0.4,0,0.8-0.5,0.9c-0.5,0.1-0.7-0.3-0.9-0.8c-0.6-1.8-1.8-3.4-2.1-5.4c-0.1-0.4-0.1-0.7-0.2-1.1
		c-0.4-2.5-0.7-5-0.4-7.6c0.2-1.1,0.4-2.2,0.9-3.2c0.6-1.2,1.2-2.3,1.8-3.5c0.2-0.4,0.4-1-0.3-0.7c-0.5,0.3-1,0.7-1.3,1.2
		c-0.9,1.3-1.9,2.5-2.5,3.9c-0.6,1.5-0.9,3.1-0.8,4.7c0.5,5.8,2.2,11.4,4.2,16.9c1.4,3.8,1.4,7.6-0.3,11.3c-0.9,1.9-2,3.7-3.1,5.6
		c-0.3,0.5-0.3,1.4-1.1,1.4c-0.7,0-0.8-0.8-1-1.3c-1.4-3.1-2.7-6.2-4.6-9.1c-0.9-1.4-1.9-2.8-3.1-4.1c-1.2-1.2-2.6-2.1-3.8-3.2
		c-0.6-0.6-1.3-1-2-1.5c-0.5-0.3-1.8-1.2-2.4-1.1c-0.9,0.2,1.8,1.6,2.1,1.7c2.1,1.4,3.9,3.2,5.5,5.2c1.9,2.4,3.4,5.1,4.1,8.1
		c0.7,3,1.6,5.9,1.6,9c0,1.9,0.1,3.7,0.2,5.6c0.3,4.2,0.5,8.5,3.3,12c1.5,2,2.9,4,4.2,6.2c0.4,0.7,1.3,1.8,2,0.3
		c0.9-2,2.4-3.5,3.1-5.6c1.5-1.9,0.8-3.8,0-5.8c-1-2.2-1.1-4.4-0.2-6.7c0.4-1.1,0.9-2.2,1.4-3.3c1.6-3.5,3.6-6.8,6.1-9.8
		c1.3-1.5,2.9-2.8,4.6-4c0.8-0.6,1.7-1.1,2.7-1.5C194.5,169.1,194.7,169.1,194.8,169"/>
	<path class="st0" d="M211.9,157.9c-1,0.3-2.1,0.7-3.2,0.7c-2.4,0.1-4.8,0.2-7.2-0.3c-3.6-0.7-7-0.5-10.2,1.5
		c-2.9,1.8-5.4,3.8-6.9,7c-1.1,2.4-1.5,5-2.6,7.3c-0.2,0.4-0.5,0.9,0,1.3c0.5,0.3,0.9,0.1,1.4-0.4c1.4-1.5,2.9-3,4.5-4.3
		c2.3-1.9,4.5-4.1,7.6-4.4c2.5-0.3,5,0.1,7.3-0.9c0.4-0.2,0.8-0.1,1,0.3c0.2,0.4-0.1,0.7-0.3,1c-1,1-2.2,1.8-3.7,2.1
		c-1.3,0.3-2.6,0.6-3.8,1c-4.8,1.6-7.6,5.4-10.2,9.4c-0.4,0.6-0.1,1.1,0.4,1.5c1.9,1.4,4.1,1.6,6.7,1.6c4.3,0.1,8.5-0.9,11.5-5
		c2.7-3.7,4.8-7.7,6.9-11.8c1-2,1.8-4.1,2.4-6.2c0.2-0.5,0.3-1.2-0.2-1.7C212.9,157.3,212.4,157.8,211.9,157.9"/>
	<path class="st0" d="M163.3,169.8c-2-3.5-4.2-6.9-7.6-9.2c-2.8-1.9-5.7-3.5-8.3-5.6c-0.3-0.3-0.9-0.5-0.7-0.9
		c0.2-0.5,0.7-0.2,1.1,0c0.6,0.3,1.3,0.5,2,0.5c2.7,0.2,4.9,1.5,7.1,3c3.7,2.6,7.2,5.4,9.5,9.4c0.2,0.3,0.4,0.7,0.8,0.6
		c0.4-0.1,0.4-0.6,0.4-1c0-1.3,0-2.6-0.1-3.8c-0.2-2.7-1-5.2-2.7-7.3c-1.3-1.6-3.1-2.6-4.9-3.7c-2.2-1.2-4.6-2.2-7-2.8
		c-2.4-0.6-4.9-0.6-7.4-0.7c-2.1-0.5-4.3-1.6-6.4,0c-0.7,0.8-0.3,1.7-0.1,2.6c0.3,1.1,0.7,2.2,1.1,3.3c1.4,4.5,2.9,8.9,5.7,12.7
		c2,2.7,4.4,4.9,7.7,5.6c2.7,0.6,5.4,0.9,8.2,0.8c2.1-0.1,2.5-0.5,2-2.6C163.6,170.5,163.5,170.1,163.3,169.8"/>
	<path class="st0" d="M177.5,148.1c0.6,0.3,1-0.8,1.4-1.3c1.5-1.8,2.8-3.9,5.1-5c2.5-1.2,4.8-2.7,7.5-3.5c0.3-0.1,0.7-0.7,1.1-0.2
		c0.2,0.4-0.1,0.8-0.4,1.1c-0.2,0.2-0.4,0.5-0.7,0.6c-2.9,1.5-4.9,4.1-7.2,6.2c-1.5,1.3-2.6,2.9-3.3,4.8c-1.2,3.1-1.1,3.4,2,3.9
		c2.7,0.4,5.6,0.6,7.6-1.9c1.1-1.4,2-3,2.9-4.6c1.2-2,2.1-4.2,2.7-6.4c0.3-1.1,0.4-2.2,0.7-3.3c0.3-1.2,0.6-2.4,0.9-3.5
		c0.1-0.5,0.5-1.3,0.3-1.9c-0.2-0.5-1-0.6-1.5-0.5c-0.5,0.1-1,0.4-1.5,0.6c-1.5,0.8-3.1,1.1-4.7,1.6c-1.7,0.5-3.3,0.9-5,1.5
		c-3.7,1.2-6.7,3.2-7.3,7.4c-0.1,0.8-0.3,1.7-0.4,2.5C177.5,146.9,176.8,147.7,177.5,148.1"/>
	<path class="st0" d="M302,230.5c-1.9-0.3-2.2-1.5-2.1-3.2c0.2-2.1-0.2-4.4-1.3-6.1c-1.5-2.3-2.2-4.8-2.8-7.4
		c-0.7-3.2-2.7-5-6.3-4.4c-1.2,0.2-1.4,0.6-1.4,1.6c0,1.1,0.2,2.2-0.3,3.3c-0.5,1-0.9,2.3-2.1,2.1c-1.4-0.2-1.4-1.5-1.4-2.6
		c0-1,0-2,0-3c0-0.6-0.3-0.9-0.7-1.2c-0.5-0.4-0.8,0.2-1,0.4c-0.8,0.8-1.7,1.4-2.6,2c-0.9,0.7-1.7,1.6-1,3.1
		c0.4,0.8,0.7,1.6,1.1,2.4c1.4,2.7-0.1,5.2-3.1,5.3c-0.6,0-1.1-0.2-1.6,0.1c-0.1,0.3,0,0.4,0.2,0.6c2.1,2.8,4.6,5.1,7.3,7.2
		c2.3,1.8,4.5,3.8,7.5,4.4c1.4,0.3,2.7,0.7,4.1,1.1c0.4,0.1,1,0.3,1.3-0.2c0.8-1.3,2-1.1,3.1-1c1.3,0.1,2.1-0.5,2.3-1.6
		c0.2-1,0.8-1.7,1.5-2.4C302.6,230.7,302.3,230.6,302,230.5"/>
	<path class="st0" d="M252.3,282c-1.6-1.2-3.3-2.5-4.6-4.1c-1.3-1.6-3.1-3.1-3.2-5.5c-0.1-2.7-0.3-5.3-0.2-8
		c0.1-2.9-1.8-5.2-1.9-8.2c-1,0.8-1.5,1.5-0.6,2.3c0.2,0.2,0.2,0.5,0.2,0.7c-0.2,2.4-0.4,4.7-0.8,7.1c-0.4,1.9-1.3,2.1-2.6,0.7
		c-1.6-1.7-3.1-3.3-5-4.7c-1.3-1-2.6-1.8-4.3-0.6c-0.6,0.4-1.3,0.9-1.9,1c-1.5,0.2-1.7,1.3-1.9,2.5c-0.1,0.5,0.2,1.5-0.9,1.3
		c-0.9-0.1-0.5-0.9-0.5-1.4c0-0.9-0.1-1.4-1.3-1c-0.8,0.3-1.8,0.1-2.7-0.1c-3-0.7-3.1-0.6-3.7,2.4c-0.4,1.7,0.1,3.5-0.7,5
		c-0.6,1.1-0.2,1.4,0.4,2c2,2,2.8,2,5.1,0.1c1.3-1.1,2.8-1.4,4.6-0.8c1.9,0.6,3,2.1,4.4,3.2c0.4,0.3,0.8,0.9,1.4,0.6
		c0.6-0.2,0.5-0.9,0.5-1.4c0.1-1.8,0.2-3.7,0.3-5.5c0-0.8,0.5-1.5,1.1-1.7c0.6-0.2,0.8,0.8,1,1.2c0.6,1.8,1.2,3.8,0.6,5.5
		c-0.8,2.4,0.7,4.3,1.4,6.1c0.6,1.5,0.6,2.7,0.5,4.1c-0.1,1.4-1,2.6-0.9,4.1c0.1,1,0.4,1.6,1.6,1.2c0.7-0.2,1.4-0.4,2.2-0.5
		c3.6-0.3,6.6-1.9,8.9-4.5c-1.7-1.8-3.7-3.2-5-5.2c-1-1.6-1.8-3.4-2.1-5.3c-0.1-0.5-0.1-0.9,0.5-0.9c0.6-0.1,0.7,0.4,0.7,0.8
		c-0.1,0.8,0.3,1.3,0.7,1.9c1,1.4,2.5,2.1,3.6,3.4c1.2,1.3,2.8,2.4,4.2,3.6c0.4,0.3,0.9,0.7,1.3,0.2
		C253.2,282.8,252.9,282.4,252.3,282"/>
	<path class="st0" d="M293.6,240.9c-1.5-0.5-2.6-1.7-4.1-2.1c-2.6-0.7-5.2-1.3-8-0.9c-1.9,0.3-3.7,1.2-5.6,1.4
		c-3.4,0.3-6.8-0.2-9.9-1.6c-3.2-1.4-6.3-2.7-9.9-2.5c-0.3,0-0.6-0.1-0.9-0.3c-0.8-0.6-1.8-0.9-2.8-0.9c-0.3,0-1,3.5-0.8,3.9
		c0.1,0.2,0.2,0.5,0.5,0.5c0.7,0.1,1.4,0.3,2,0.3c4.2-0.1,7.5,1.9,10.9,4c3.6,2.1,6.5,5.1,9.9,7.4c0.5,0.3,0.8,0.9,0.8,1.5
		c0.4-0.1,0.9-0.3,1.2,0.2c0.1,0.3,0.3,0.7-0.1,0.9c-0.9-0.2-1.5,0.8-2.5,0.7c-2.8-0.1-4.7-1.9-6.7-3.4c-3.7-2.8-7.5-5.3-12.2-5.8
		c-1.4-0.1-2.7-0.7-4.2-0.2c-0.9,0.3-0.9,0.7-1,1.4c-0.1,0.7,0.4,0.9,1,1c1.1,0.2,2.3,0.3,3.4,0.6c1.8,0.6,3.7,0.4,5.4,1.5
		c2.9,1.9,5,4.7,7.6,7c1.6,1.4,3,2.8,4.5,4.2c0.6,0.6,1,0.6,1.4-0.2c0.8-1.4,2.1-2.5,3.3-3.6c1.4-1.3,2.8-2.5,4.7-2.8
		c0.7-0.1,1.2-0.4,1.4-1c0.2-0.7-0.3-1.1-0.7-1.5c-1.7-1.2-3.2-2.6-5.2-3.4c-1.5-0.6-2.8-1.6-3.8-2.9c-0.4-0.5-0.5-1.1-0.2-1.6
		c0.2-0.5,0.8-0.4,1.3-0.4c0.8-0.1,1.7-0.1,2.5-0.2c2.5-0.2,5-0.4,7.6,0.1c2.1,0.4,3.9,1.3,5.9,1.9c1.9,0.6,2.4,0.3,3.1-1.5
		c0.1-0.3,0.2-0.6,0.3-0.9C293.9,241.3,294,241,293.6,240.9"/>
	<path class="st0" d="M294,237.4c-3.2-0.7-6.2-1.7-9.1-3.5c-3.2-2-5.9-4.4-8.6-7c-1-0.9-1.6-2.3-2.6-3.1c-2-1.6-4.1-3.1-6.2-4.6
		c-1.1-0.8-2.2-1.6-3.8-1.1c-0.8,0.3-1.7,0.5-2.7,0.4c-2.1-0.4-3.2,1.1-3,3.1c0.1,0.8,0,1.6-0.6,2.2c-0.3,0.3-0.9,0.4-0.6,0.9
		c0.2,0.3,0.6,0.5,1.1,0.5c1.4,0,2.8,0,4.1,0v0c1.3,0,2.6,0,3.8,0c0.4,0,1.1-0.3,1.1,0.6c0,0.9-0.7,0.7-1.1,0.6
		c-3.2-0.1-6.4-0.1-9.5-0.4c-1.2-0.1-1.4,0.9-1.5,1.4c-0.2,0.9,0.7,0.6,1.2,0.7c0.6,0.1,1.2,0,1.7,0c2.2-0.2,4.3,0,6.2,1.2
		c2.1,1.3,4.2,2.8,6.9,2.9c0.4,0,1.4,0.3,1.2,1.1c-0.2,0.8-1,0.2-1.5,0.4c-0.1,0-0.3,0-0.5,0c-2.5-1.3-5.2-1.6-7.9-2.4
		c-3-0.9-5.8-0.8-8.7-0.1c-0.6,0.1-1,0.6-0.9,1.3c0.1,0.9,0.7,0.2,1.1,0.3c0.4,0,0.7,0.2,1,0.3c0.8,0.3,1.5,1,2.4,0.9
		c4-0.4,7.5,1.3,11,2.6c3.4,1.3,6.8,1.7,10.2,0.5c3.4-1.2,6.6-1,10-0.2c1.8,0.4,3.4,1.6,5.4,1.3c0.3-0.1,0.8,0.2,0.9-0.3
		C294.7,237.6,294.4,237.5,294,237.4"/>
	<path class="st0" d="M265.4,256.3c-1.4-3.2-4.3-4.7-6.8-6.7c-2.7-2.2-5.9-0.7-8.8-0.9c-0.2,0-0.5,0.2-0.6,0.4
		c-0.5,1.5-1.7,2.5-2.9,4c0.8,0,1.3,0,1.7,0.1c1.2,0.3,2.4,0.5,3,1.7c0.7,1.4,1.9,2.5,3,3.6c1.7,1.7,3.5,3.5,5.2,5.2
		c1.9,1.9,3.6,3.9,5.4,6c1,1.2,1.5,1.1,2.5-0.2c1.2-1.7,2.2-3.5,3-5.4c0.4-0.9,0.3-1.7-0.4-2.4C268,260,266.3,258.3,265.4,256.3"/>
	<path class="st0" d="M255.3,275.7c-3.4-2.8-4.5-6.7-5.3-10.8c-0.4-2-0.5-4.1-1.8-5.9c-0.6-0.8-1.1-1.5-1.2-2.5
		c-0.1-0.8-0.7-1.2-1.5-0.8c-0.7,0.4-2.1,0.4-1.4,2c1.7,3.9,2.2,8,1.8,12.3c-0.2,2.5,0.4,4.7,2.3,6.5c1.9,1.8,3.7,3.8,6.3,4.9
		c0.9,0.4,1.3,0.7,2-0.1c0.6-0.6,1.7-0.8,1.6-1.9c0-0.6-0.2-1.1-0.7-1.5C256.7,277.2,256.1,276.4,255.3,275.7"/>
	<path class="st0" d="M256.6,264.2c-2.3-2.4-4.4-4.9-6.5-7.5c-0.2-0.3-0.3-0.5-0.7-0.5c-0.5,0.1-0.3,0.5-0.3,0.7c0,0.4,0,0.7,0.3,1
		c0.9,0.9,1.1,2,1.4,3.2c0.5,2.5,0.7,5,1.5,7.5c1.1,3.5,3.8,5.8,6.2,8.3c1,1,2,1.2,3-0.1c0.8-1,1.7-2,2.6-2.9c0.9-1,0.8-1.9-0.3-2.8
		C261.4,268.9,259,266.6,256.6,264.2"/>
	<path class="st0" d="M291.7,245.4c-1.9,0.1-3.7-0.3-5.5-1.1c-1.9-0.8-3.8-1.2-6-1.1c-0.8,0.1-1.8,0-2.9,0.2c-1,0.3-0.9,0.8-0.3,1.1
		c1.2,0.7,1.8,1.9,3,2.6c1.2,0.7,2.6,1.4,3.4,2.7c1,1.4,2.3,1.7,3.8,1c0.4-0.2,0.8-0.2,1.2-0.3c2.2-0.5,3.5-1.9,4.1-4
		C292.8,245.8,292.7,245.3,291.7,245.4"/>
	<path class="st0" d="M212.9,276.7c-1-0.7-2.2-0.4-3.3-0.8c-2.2-0.8-4.3-0.8-6.5-0.4c-1.4,0.2-2.9,1-3.2,2.3
		c-0.5,2.2-0.1,4.4,2.2,5.9c-0.3-1.5-0.7-2.8-0.7-4.2c0.1-1,0.5-1.5,1.5-1.6c3.1-0.2,6,0.6,8.9,1.7c0.6,0.2,0.9,0.4,1.5,0
		c0.8-0.7,0.6-1.5,0.6-2.3C214,276.5,213.3,276.9,212.9,276.7"/>
	<path class="st0" d="M220.4,279.8c-0.2-0.1-0.4-0.2-0.5-0.3c-1-0.4-1.9-0.8-3-1.2c-0.6,0.1-0.4,1-0.8,1.2c-1.3,0.9-0.6,1.2,0.3,1.7
		c1.8,0.9,3.6,1.9,5.4,2.9c0.4,0.2,0.8,0.5,0.9-0.3c0.1-1.1,0.3-2.3,0.1-3.4C222.4,279.5,221.2,280.1,220.4,279.8"/>
	<path class="st0" d="M238.4,264.6c0.4,0.2,0.4,1.1,1,0.8c0.6-0.3,0.4-1,0.2-1.6c-0.4-1.6-0.7-3.2-0.6-4.8c0.2-0.9-0.2-1-0.9-0.7
		c-1,0.4-1.9,0.8-3,1.1c-1.2,0.4-1.3,1-0.4,1.8C235.9,262.3,237,263.7,238.4,264.6"/>
	<path class="st0" d="M229.6,283.2c-1.4-0.4-2.6-1.3-4-2c-1.5,4.9-1.5,4.4,3.6,6.3c0.1-0.7,0.3-1.3,0.5-1.9
		C229.9,284.8,230.7,283.5,229.6,283.2"/>
	<path class="st0" d="M232.6,288.1c-0.1,0.2-0.2,0.6,0.2,0.7c0.3,0.1,0.9,0.2,1-0.1c0.8-1.9,2.5-3.5,1.8-6
		C234.5,284.6,233.5,286.3,232.6,288.1"/>
	<path class="st0" d="M176.4,4.5C82.1,4.5,5.3,81.1,5.3,175.2c0,94.1,76.8,170.7,171.1,170.7c94.3,0,171.1-76.6,171.1-170.7
		C347.5,81.1,270.7,4.5,176.4,4.5 M179.5,8.9c90.5,1.7,163.6,75.6,163.6,166.3c0,1,0.2,1.8-0.5,2.4c-0.7,0.7-2.3,1.1-3.3,1.3
		c-0.5,0.1-1.1,0.1-1.6,0.2c-4.7,0.2-9.5,0.4-14.2,0.6c-3,0.1-5.9-0.1-8.8-0.9c-2.6-0.7-3.2-1.8-2.4-4.3c0.5-1.6,1.2-3,1.8-4.6
		c1.4-4,1.7-8-0.1-11.9c-2.1-4.4-5.5-7-10.2-7.9c-4.4-0.8-8.3,0.4-11.8,3c-2.6,1.9-4,4.6-5,7.6c-0.5,1.6-0.5,3.2-0.1,4.8
		c0.8,3.2,2.3,6,3.8,8.9c0.9,1.7,0.5,3.1-1.2,4c-2.1,1.1-4.5,0.9-6.7,1.2c-7.1,0.9-14.1-0.1-21-1.9c-1-0.3-2.8-0.2-2.8-2
		c0-2.6,0.1-5.2-0.1-7.8c-0.2-2.7-0.9-5.4-1.4-8.1c-0.6-3.2-1.4-6.3-2.4-9.4c-0.8-2.6-1.8-5.2-2.8-7.6c-0.5-1.3-1.2-2.5-1.8-3.7
		c-0.4-0.8-1-1.8-0.9-2.7c0-0.1,0.1-0.3,0.1-0.4c1-1.1,2.3-1.9,3.5-2.9l2.6-2c1-0.8,2-1.5,2.9-2.4c3.2-3.1,4.3-7,3.2-11.3
		c-0.4-1.4-0.1-2.3,0.9-3.2c1.2-0.9,2.3-1.9,3.4-2.9c3.3-3.1,6.6-6.1,9.5-9.6c3.2-3.9,3.6-8,1.4-12.4c-0.5-1.1-0.5-1.8,0-2.8
		c2.3-4.3,3.7-8.9,3.6-13.9c-0.1-2.6-3.4-7.2-6.5-7.6c-3.8-0.5-6.8,0.8-9.7,3c-0.7,0.5-1.3,1.2-2.4,0.5c-1.7-1.1-3.7-1.7-5.6-1.9
		c-2-0.3-4.1-0.5-6,0c-3.3,1-6,3-8.4,5.4c-1.6,1.6-3.2,3.3-4.8,4.9c-0.5,0.5-1,1.1-1.9,0.5c-3.5-2.3-7.1-1.9-10.7-0.5
		c-3.6,1.4-6.6,3.8-9.5,6.3c-3.8,3.4-7.5,6.9-8.3,12.4c-0.4,2.7,0,3-3.5,1.7c-0.9-0.3-1.8-0.6-2.8-0.9c-2-0.6-4.2-0.9-6.2-1.6
		c-2.6-0.9-5.3-0.9-7.9-1.4c-2.1-0.4-4.3-0.4-6.5-0.6c-0.8-0.1-1.3-0.4-1-1.2c0.4-1.3,0.4-2.6,0.8-3.9c1.1-3.3,1.2-6.7,1.6-10.1
		c0.3-2.5,0.1-5.1,0.1-7.6c0-2.5-0.4-5.1-1.2-7.4c-1-2.8-1.6-4.5-5.2-3.9c-0.5,0.1-1,0.2-1.5,0.4c-2.1,1-4.2,2-6.4,2.9
		c-4,1.8-7.6,1.2-10.9-1.4c-5-4-6.7-11.6-2.6-17.2c1.7-2.3,4-3.7,6.7-4.6c2-0.7,3.9-0.6,5.9-0.1c3.2,0.8,6,2.6,9.3,3
		c1.6,0.2,3.2-0.5,4.1-1.8c0.8-1.1,0.9-2.7,1.1-4.1c0.2-1.5,0.4-3,0.5-4.5c0.4-3.6,0.3-7.2,0-10.8c-0.1-2-0.3-4.1-0.7-6.1
		c-0.2-1-0.4-1.9-0.6-2.9c-0.2-0.7-0.8-2-0.8-2.7C179.5,9,179.5,9,179.5,8.9 M232.2,211.1c-0.6-1.5-1.3-2.9-2.5-4
		c-1.6-1.4-3.5-1.9-5.4-2.2c-4.5-0.7-8.8-0.4-12.1,3.1c-2.9,3-4.1,6.7-3.4,10.8c0.4,2.5,1.4,4.8,3.2,6.8c1.2,1.3,2.6,1.7,4.2,1.6
		c3.5-0.2,5.9,2.2,6.4,5.5c0.2,1.5,0.4,3.1,0.1,4.6c-0.1,1.2-0.6,2.3-0.6,3.6c0.1,0.8-0.3,1.3-0.9,1.7c-3.2,2.2-6.6,4-10.1,5.7
		c-4.1,2.1-8.6,3.3-12.9,4.9c-0.9,0.3-1.5-0.1-1.6-0.9c-0.3-1.9-1-3.8-1.5-5.6c-0.7-2.5-1-5-2-7.4c-0.8-2-1.1-4.2-1.7-6.3
		c-0.7-2.3-1.5-4.6-1.8-6.9c-0.4-2.5-1.4-4.8-2-7.3c-0.2-0.9,0.3-1.6,0.7-2.2c0.6-1,1.4-1.9,2.1-2.8c0.3-0.4,0.5-0.6,1.2-0.4
		c2.3,0.7,4.7,0.2,6.8-0.7c4.9-2,8.7-5.5,11.9-9.8c2.7-3.6,5.4-7.3,6.8-11.6c0.5-1.4,0.7-2.9,1-4.3c0.1-0.4,0-0.9-0.2-1.3
		c-0.4-0.7-1.1-0.9-1.7-0.5c-1.1,0.7-2.1,1.6-3.1,2.5c-1.1,1.1-2.1,2.4-3,3.7c-0.5,0.8-1,1.5-1.6,2.3c-1.5,2.1-2.8,4.3-4.7,6
		c-1.1,1-2.4,1.7-3.8,2.3c-0.7,0.3-1.8,0.5-2.2-0.2c-0.5-0.9,0.6-1.3,1.2-1.8c1.7-1.2,3-2.6,3.9-4.5c0.4-0.9,0.7-1.7,0-2.5
		c-0.7-0.8-1.7-0.6-2.5-0.2c-1.3,0.6-2.7,1.1-3.7,2.3c-2.1,2.4-5,3.2-8,3.9c-2.9,0.7-5.5,2.1-7.3,4.7c-2.6,3.8-3.8,7.8-3.7,12.4
		c0.1,4.4-0.1,8.9,0.2,13.3c0.2,3.8,0.9,7.5,1.5,11.2c0.7,4.6,1.6,9.1,1.7,13.8c0,1.3-0.5,2-1.8,1.9c-2.3-0.2-4.7,0.2-7-0.2
		c-1-0.2-1.4-0.5-1.4-1.5c0.2-4.2,0.7-8.5,1.6-12.6c0.4-1.8,0.5-3.7,0.8-5.5c1-8,1.3-16,0.7-24c-0.3-4.9-2.8-8.8-6.7-11.6
		c-1.8-1.3-4.1-1.8-6.3-2.3c-2.2-0.5-3.9-1.7-5.5-3.2c-1.5-1.4-3.2-2.5-5.3-2.7c-1.4-0.1-1.9,0.8-1.6,2.1c0.6,2.5,2.6,3.8,4.3,5.4
		c0.5,0.5,1.6,0.9,1,1.7c-0.5,0.8-1.6,0.4-2.3,0.1c-2.8-1.1-4.7-3.3-6.5-5.7c-2-2.8-3.7-5.8-6.2-8.3c-1-1-2-1.8-3.3-2.5
		c-1.2-0.6-2.1-0.1-2,1.2c0.2,2,0.7,4,1.6,5.8c3.1,6.4,7,12.3,12.6,16.8c3.2,2.6,6.7,4.4,11,4.4c0.8,0,1.7-0.8,2.4-0.1
		c1,1.1,2,2.2,2.7,3.5c0.9,1.6,0.1,3.3-0.4,4.7c-1,2.9-1.3,6-2.3,8.9c-0.8,2.2-1.2,4.5-1.8,6.8c-0.9,3.3-1.7,6.6-2.6,9.9
		c-0.4,1.6-0.9,3.1-1.3,4.7c-0.2,0.8-0.6,1-1.4,0.8c-3.1-0.9-6.1-2-9.1-3.2c-4.2-1.7-8.1-4.1-12.1-6.3c-1.7-1-2.4-2.4-2.5-4.3
		c0-2.1-0.1-4.2,0-6.2c0-2.9,2.8-5.6,5.7-5.6c4.2-0.1,6.7-2.5,7.8-6.6c1.1-4.3,0.3-8-2-11.5c-1.3-2-3.4-3.3-5.6-3.9
		c-4.9-1.2-9.7-1-13.7,2.7c-1,0.9-1.6,2.1-1.7,3.5c-0.9,2.5-0.4,4.9,0,7.4c0,0.5,0,1,0,1.4c0.1,3.3-1.1,4.7-4.4,4.9
		c-0.5,0-1.1,0-1.6,0.2c-1.1,0.4-1.8-0.1-2.4-1c-4.4-5.8-8.1-12.1-10.8-18.9c-2.1-5.3-3.6-10.7-4.7-16.3c-1.4-6.9-1.2-13.9-0.9-20.8
		c0.1-3.1,0.9-6.1,1.5-9.1c0.5-2.7,1.4-5.3,2-7.9c0.4-1.1,0.6-2.2,1.1-3.3c3.3-8.3,7.5-16.2,13.2-23.1c1.8-2.1,3.2-2.4,5.7-0.9
		c1,0.6,1.4,0.7,1.4,2c0,2-0.3,3.9-0.6,5.9c-0.3,2.1,0.2,4.1,0.9,6.1c0.5,1.6,1.6,3,3.4,3.9c1.8,0.9,3.6,1.5,5.5,1.7
		c5,0.6,10-1.1,12.7-5.8c2.2-3.9,2.3-7.9,0.5-11.9c-1.4-3.1-3.6-5.3-7.5-5c-2.5,0.2-5.2-2.5-5.3-5.1c-0.1-1.7,0-3.5,0-5.2
		c0-0.7,0.1-1.3,0.7-1.7c5.2-3.5,10.7-6.3,16.5-8.6c3.4-1.3,6.8-2.3,10.3-3.3c1.5-0.5,3.2-0.6,4.8-0.9c3.7-0.7,7.5-1,11.4-0.9
		c2.2,0.1,4.5,0,6.7,0c2,0,3.9,0.2,5.9,0.6c0.6,0.1,1.3,0.2,1.9,0.3c6.6,1.1,13.1,2.5,19.2,5.2c4.7,2.1,9.3,4.3,13.5,7.4
		c0.7,0.5,1.1,1.1,1.2,2c0.1,1.4,0.1,2.9,0,4.3c-0.3,3.7-2.6,6.6-6.4,6c-1.7-0.2-3.1,0.6-4.2,1.8c-3.5,3.9-4.3,8.3-2.5,13.2
		c1.4,3.8,4.1,6.3,8.1,7.4c2.7,1.3,5.3,0.8,8,0c3-1.2,5.7-2.7,6.7-6.1c1.1-2.9,0.3-5.8,0-8.6c-0.1-0.8-0.2-1.7-0.3-2.5
		c0-0.5,0-1,0.4-1.3c2.1-1.4,5.2-2.5,7.1,0.5c0.8,1.1,1.7,2.2,2.5,3.3c2.2,3.1,4.2,6.4,6.2,9.7c2.1,4.3,3.9,8.7,5.4,13.2
		c2.6,8,3.9,16.9,3.6,25.3c-0.2,4.5-0.4,8.9-1.2,13.3c-2.3,12-7,23-14.2,32.9c-2,2.7-2.8,3-6,2c-0.5-0.2-1-0.4-1.5-0.6
		c-2.2-1-2.4-1.2-1.9-3.7C232.4,217.5,233.7,214.4,232.2,211.1 M105.3,257.9c-1.8-5.4-5.2-9.8-8.9-14c-1.2-1.4-2.4-2.7-3.5-4.2
		c-0.9-1.3-1.8-1-2.6-0.3c-3.3,2.6-7.1,3.8-11.1,4.6c-0.4,0.1-1.3,0.4-1.4-0.5c-0.1-0.9,0.7-0.6,1.2-0.6c3.7-0.3,6.9-1.7,10-3.7
		c5.5-3.5,11-7,15.5-11.7c1-1,1.8-2.1,3-2.9c1.1-0.8,2.1-0.9,2.8,0.3c1.5,2.4,3.1,3.5,6.1,2.3c1.6-0.6,3.5-0.5,5.1-1.6
		c1.1-0.8,1.6-1.6,1.5-2.9c-0.2-2.8-0.3-5.6-0.4-8.4c-0.1-3.6,0.9-6,5.9-7.3c3.5-0.9,7.1-0.7,10.2,1.7c4.8,3.7,5.3,11.5,1,15.7
		c-0.8,0.8-1.8,1.3-3,1.2c-4.5-0.6-8.3,3.9-8.2,8c0.1,1.5-0.2,3,0.1,4.5c0.2,1.6-1.2,2.5-1.6,3.9c-0.5,2.3-2.4,3.8-4.1,5.4
		c-3.4,3.3-6.9,6.6-11.1,9c-1.2,0.7-2.5,1-3.9,1.3c-1.2,0.3-1.6,0.9-1.2,2.1c0.4,1.1,1.2,1.1,2.1,0.4c1-0.8,2.1-1.6,3.3-2.3
		c2.7-1.7,5.4-3.3,8.1-4.9c3.5-2.1,7.1-3.9,9.5-7.3c0.2-0.3,0.5-0.8,0.8-0.5c0.4,0.3,0.1,0.8-0.1,1.1c-3.7,3.8-8.1,6.8-12.7,9.4
		c-1.1,0.7-2.3,1.3-3.5,1.9c-1.1,0.6-2.4,1.1-3.3,1.8c-1.8,1.5-3.4,3-5.9,3.1c-4.7,0.3-6.4,2.7-7.8,6.6c-0.2,0.4-0.3,0.9-0.4,1.4
		c-0.3,0.3-0.6,0.3-0.9,0c0-3.8,3.4-7.9,7.1-8.7C106.4,261,106.3,261,105.3,257.9 M129.7,107.5c-1.3,0.9-1.2,2.2-1.2,3.4
		c0.1,2.3-0.3,4.6,0.6,6.9c1.1,2.7,2.9,4.3,5.6,5.1c1.4,0.6,3,0,4.4,0.6c5.1,4.4,4.6,12-0.1,16c-2.4,2-5.3,2.8-8.5,2.3
		c-1.5-0.2-3-0.4-4.4-1.2c-2.7-1.5-3.9-4.4-3.5-8c0.3-2.4,0.3-4.9,0.4-7.3c0-1.1-0.6-2-1.6-2.5c-1-0.6-2.1-1.3-3.2-1.5
		c-1.4-0.3-3.1-0.9-4.3,0.1c-0.5,0.5-1.2,0.1-1.8-0.2c-1.9-1.2-3.4-2.9-4.8-4.7c-2.7-3.4-6.1-6.2-8.7-9.7c-0.7-0.9-0.7-1.3,0.4-1.8
		c2.3-1,4.5-2.2,6.7-3.5c2.9-1.7,4.1-4.3,5-7.3c0.6-2.3,1.3-4.6,1.4-7c0.1-1.2,1.1-1.1,1.8-0.8c2,1,4.2,1.4,6.3,1.7
		c3.8,0.6,6,3.1,7.9,6c1.9,2.9,2,6.2,1.9,9.5c0,0.9,0,1.8,0,2.7C130,106.7,130.1,107.2,129.7,107.5 M105.1,122.1
		c1.1,0.8,1.7,2,1.7,3.4c0,1,0.2,1.9,0.9,2.7c0.3,0.4,0.6,0.8,0.2,1.3c-0.4,0.5-0.9,0.1-1.3-0.1c-2.9-1.4-4.5-4-6-6.6
		c-1.3-2.2-3.1-3.5-5.3-4.5c-1.7-0.7-3.4-1.5-5-2.3c-0.1-0.1-0.3-0.1-0.4-0.2c-0.3-0.2-0.8-0.2-1.1-0.3c-0.4-0.2-0.5-0.7,0-0.7
		c1.2,0,2.8,0.9,3.9,1.4c1.5,0.7,3.1,1.1,4.6,1.8C100.1,118.9,102.7,120.3,105.1,122.1 M224.2,88.2c-2,0.6-3.2,2.3-4.7,3.7
		c-0.3-1.6,0.6-2.4,1.2-3.2c2-3.1,4.2-6.1,7.5-8.1c1.8-1.1,3.8-1.4,5.9-1c1.2,0.3,0.6,1,0.1,1.5c-1.7,1.5-3.1,3.2-4.5,5
		c-2.3,3-3.4,6.4-4.5,10c-0.9,2.7-1.1,5.9-3.6,7.9c-1.5,1.3-3.3,1.2-4.3-0.5c-0.6-1.1-0.5-2.3-0.2-3.5c0.5-1.8,1.6-3.2,2.6-4.7
		c1.4-2,2.9-4,4.3-5.9C224.1,89.1,224.3,88.9,224.2,88.2 M257,118.7c0.2-0.1,0.5-0.3,0.7,0c0.3,0.4,0,0.7-0.1,1
		c-1.3,2.2-2.9,4.2-5.1,5.6c-2.1,1.4-4.3,2.3-6.7,3.2c-0.7,0.3-1.2,0.1-1.7-0.4c-1.4-1.5-2.4-3.4-3.8-4.9c-0.5-0.5-0.2-0.9,0.5-0.9
		c0.7,0,1.4,0,2.1,0c3.1-0.4,6.3-0.5,9.3-1.6C253.9,120.1,255.5,119.6,257,118.7 M256.8,78.8c1.4-1.4,2.8-2.8,4.8-3.5
		c1.7-0.6,2.6-2.2,3.7-3.6c1.8-2.2,6.8-4.3,10.2-1.9c2.5,1.7,3.7,5.3,2.8,8.7c-0.5,1.8-1.4,3.4-2.7,4.8c-0.6,0.6-1,1.4-1.2,2.2
		c-0.8,4.1-3.5,6.7-7.1,8.5c-1.5,0.8-2.9,1.8-4.5,1.3c-4.4,0.5-7.8-3.6-8.9-6.7C252.7,84.9,254,81.6,256.8,78.8 M244.2,81.4
		c-3.2,2-6.2,4.3-8.4,7.4c-3.4,4.7-5.9,9.7-5.4,15.7c0.3,3.3,1.9,6.3,3.3,9.2c0.9,2,2,3.9,3.4,5.7c0.8,1.1,0.4,2.1-1,2
		c-1.4-0.1-2.5,0.6-3.8,0.9c-1.5,0.3-2.6,2.3-2.3,4.3c0.3,2.2,0.2,4.4,0.7,6.6c0.8,3.3-1.9,7.3-5.4,8.2c-3.6,0.9-7.1,0.8-10.4-1.3
		c-3.3-2.1-5.3-7.7-4.1-11.4c0.6-1.8,1.4-3.6,2.9-4.9c1.5-0.8,3.2-0.4,4.8-0.9c4.6-1.9,6.1-4.1,6.1-9c0-2,0.2-4-0.6-6
		c-0.4-1,0.4-1.9,0.8-2.8c2.1-5.3,4.5-10.3,7.4-15.2c0.3-0.4,0.7-0.8,0.9-1.3c3.3-4.5,8.2-6.9,13.3-9.7
		C245.9,80.4,245,80.8,244.2,81.4 M176.4,8.9c0.4,0,0.7,0,1.1,0c0.1,0.2,0.2,0.4,0.2,0.6c0.8,2.9,1.4,5.8,1.7,8.7
		c0.8,6,0.3,12-0.4,18c-0.4,3.1-1.7,4-4.7,3.6c-0.8-0.1-1.5-0.6-2.2-0.9c-2.3-0.9-4.6-2-7.1-2.1c-0.1,0-0.2,0-0.4,0
		c-0.4,0-0.8-0.1-1.1,0c-0.1,0-0.2,0-0.2,0c0,0,0,0,0,0c-4.8,0.1-8.7,2.2-11.5,6.5c-0.8,1.2-1.3,2.5-1.6,3.9c-1.3,5.3,0,9.9,3.6,14
		c3.6,4,9.4,5.4,14.4,2.9c2.1-1,4.3-1.9,6.4-2.9c1.6-0.8,2.7-0.4,3.5,1.2c0.5,1.1,0.8,2.2,1,3.3c1.4,8.9,0.6,17.6-1.9,26.2
		c-0.2,0.7-0.5,1.3-1.4,1.3c-1.6,0-3.3,0-4.9,0.2c-3.1,0.3-6.2,0.3-9.3,0.9c-2,0.4-4,0.9-5.9,1.5c-1,0.3-2,0.5-3,0.8
		c-0.7,0.3-1.5,0.8-2.3,0.8c-0.4,0-0.7,0.1-1.1,0.1c-0.3,0-0.7-0.1-1.1-0.2c-1.8-0.7-3.8-0.8-5.5-1.8c-0.3-0.3-0.6-0.6-0.9-1
		c-0.4-0.8-1.2-1.4-1.9-2c-0.4-0.6-0.7-1.3-1.1-1.9c-1.1-1.9-0.3-3.9-0.3-5.8c0-1.1-0.2-1.9-1.2-2.4c-0.7-0.4-1.5-0.8-2.3-1.1
		c-1.8-0.7-3.4-1.8-5.1-2.7c-1.9-1-1.6-3.3-1.9-5.1c-0.3-1.9-0.1-3.9-0.8-5.8c-0.4-1-1.4-1.9-1.5-3.2c0,0,0.1-0.1,0.1-0.1
		c0.4,0.2,0.9,0.3,1.1,0.5c3.1,3.1,6.4,5.9,8.1,10.1c0.5,1.2,1.2,2.2,2.1,3.2c0.9,1,2.1,1.1,3,0.6c1.2-0.6,0-1.5-0.2-2.2
		c-0.8-1.9-2.4-3.2-3.9-4.5c-3.8-3.5-6.9-7.6-10.5-11.3c-2.7-2.8-5.8-5.2-9.7-6.3c-4.9-1.3-9.8-1-14.5,0.4c-3.8,1.2-6.9,3.6-9.5,6.5
		c-4.3,4.8-8.3,9.8-13.8,13.4c-3.9,2.5-7.7,5.2-11.5,7.8c-0.3,0.4-1,0.4-1.2,1c-4.9,3.6-6.7,8.8-7.2,14.7c-0.6,6.7,1.1,13.3,0.8,20
		c0,0.6,0.4,0.8,0.9,0.9c2.7,0.4,4.6,2,5.8,4.4c0.5,1,1,2.1,0.3,3.2c-0.7,1-1.9,1-3,0.8c-0.1,0-0.2-0.1-0.3-0.1
		c-1.3,0-1.9-1.3-3-1.6c-0.1,0.2-0.1,0.3-0.1,0.5c0,0.5,0.2,1,0.4,1.5c0.2,0.4,0.3,0.8,0.2,1.2c2.1,3.6,2,7.5,1.9,11.5
		c0,0.1,0,0.2,0,0.2c0.3,1,0.3,2.1,0.3,3.2c0,0.3,0,0.5,0,0.8c0.1,0.5,0.2,1,0.4,1.3c1.6,2.2,2.7,4.6,2.8,7.4c0,1.1,0.7,1.6,1.8,1.5
		c1.3,0,2.7-0.1,4,0c1.8,0.2,2.6-0.7,3.4-2.2c2.5-5.1,4.9-10.2,5.8-15.8c0.5-2,1.7-4.1,0-6.1c-0.8-1.7-1.4-3.4-2.4-5
		c-0.6-0.9-0.4-1.8,0.8-2.4c1.8-0.8,3-2.2,3.4-4.2c0.2-1.2,0.6-2.4,0.8-3.6c0.3-1.5,0.5-1.5,1.8-0.7c4.8,3.3,8.4,7.6,11.3,12.6
		c1.9,3.2,3.6,6.4,4,10.2c0.1,1.3-0.1,2.7,0.7,3.9c0.1,0.2,0,0.5-0.1,0.8c-0.7,1.6-1.4,3.3-2,4.9c-1.4,3.9-2.6,7.9-3.4,12
		c-0.5,2.4-1,4.7-1.3,7.1c-0.2,1.2-0.3,2.4-0.4,3.6c0,0.4,0.1,1.3-0.1,1.6c-0.3,0.3-1,0.2-1.3,0.1c-1.5-0.3-2.8-0.9-4.3-1.2
		c-2.4-0.5-4.8-0.6-7.2-1.2c-3.6-0.2-7.3-0.2-10.9,0c-0.2,0-0.4,0-0.6,0.1c-1.7-0.2-3.2,0.4-4.8,0.6c-0.6,0.2-1.1,0.3-1.7,0.5
		c-3,0.9-4.3,2.7-3,6.2c1.2,3,3.1,5.6,3.7,8.9c0.5,2.3,0.2,4.6-0.9,6.6c-2.3,4.4-6,6.6-11,6.7c-3.7,0.1-6.8-0.9-9.2-3.6
		c-3.4-3.6-4-7.9-2.6-12.6c0.8-2.6,2.1-5,2.5-7.7c0.3-1.7-0.3-2.9-1.6-3.8c-1.8-1.3-4.1-1.4-6.3-1.5c-5-0.2-9.9-0.5-14.9-0.3
		c-3.3,0.1-6.6,0.5-9.8,1.8c-0.1,0-0.2,0.1-0.3,0.1C11.7,81.5,85.7,8.9,176.4,8.9 M9.7,175.2c0-0.6,0-1.2,0-1.8
		c0.5-0.2,1.1-0.4,2-0.7c5.9-1.8,12.3-1.5,18.4-1.3c3.2,0.1,6.4-0.2,9.4,1.3c1.1,0.5,1.6,1.3,1.3,2.4c-0.3,1.2-0.6,2.4-1.1,3.5
		c-1.3,2.8-2,5.6-2.1,8.7c-0.1,5.9,3.3,11,8.8,13c0.7,0.4,1.5,0.4,2.3,0.6c1.8,0.4,3.6,0.5,5.4,0c3.2-0.4,5.9-1.9,8-4.1
		c3.2-3.3,4.5-7.2,3.4-11.8c-0.7-2.6-1.9-5-3.1-7.4c-0.5-1.1-1.1-2.2-0.9-3.5c0.3-0.5,0.7-1,1.3-1.2c1.7-0.6,3.4-1.2,5.2-1.3
		c8.5-0.5,16.8-0.2,25,2.2c1.6,0.5,0.9,3.6,0.9,4.7c0,2.1,0.1,4.2,0.3,6.3c0.3,3.2,0.9,6.3,1.7,9.4c0.4,1.4,1.1,2.8,0.9,4.2
		c-0.2,1.4-0.8,2.7-1.7,3.8c-1.4,1.9-3.1,3.6-4.9,5.2c-5.6,5.2-11.4,10.4-16.3,16.4c-0.2,0.3-0.7,0.5-0.5,0.9c0.2,0.4,0.6,0.4,1,0.4
		c3.2-0.3,6.3-0.7,9.5-0.9c1.6-0.1,3.2-0.6,4.8-1c3.3-0.9,4.7-3.8,6.3-6.4c1.5-1.4,2.6-3.2,3.4-5.1c0.5-1.2,1.3-1.1,2.3-1.2
		c1-0.1,1.2,0.6,1.5,1.2c0.4,0.8,0.7,1.5,1.2,2.2c0.9,1.5,0.2,3.4-1.5,4.3c-3.8,1.9-7.3,4.5-11.4,5.7c-2,0.6-4,1-6,1.4
		c-2.8,0.5-5.7,0.8-8.6,0.9c-3,0-5.4,1.3-7.9,2.6c-3.7,2-6.8,4.8-9.2,8.3c-0.3,0.4-0.6,1.1-1.2,0.7c-0.5-0.3-0.1-0.9,0-1.3
		c0.5-2.1,1.1-4.1,2.2-6c1.5-2.6,4-4.2,5.8-6.6c1.5-1.9,2.9-3.9,4.3-5.9c0.8-1.1,1.4-2.3,1.9-3.4c0.2-0.5,0.3-1,0.2-1.5
		c-0.8,0.8-1.5,1.6-2.2,2.5c-0.4,0.6-0.9,1.1-1.4,1.7c-0.2,0.2-0.4,0.4-0.6,0.7c-0.6,0.7-1,1.7-1.7,2.4l-4.4,5.4
		c-0.3,0.4-0.7,0.7-1,1.1c-1,1.4-2.3,2.4-3.2,3.8c-1,1.5-1.8,3.2-2.5,4.9c-0.8,2.2-1.4,4.5-2,6.7c-0.4,1.3-0.6,2.6-0.6,3.9
		c-0.7,5.1-1,10.2-0.6,15.3c0.2,2.9,0.9,5.6,1.8,8.4c1.1,3,2.1,6.1,3.8,8.9c1.6,2.6,3.7,4.7,6.4,6.3c4.7,2.7,9.7,4.6,14.5,6.8
		c2.5,1.2,4.8,2.8,6.9,4.6c4.6,3.8,8.9,7.9,13.2,11.9c1.1,1,2.4,1.7,3.7,2.4c1,1.1,1.8,0.2,2.6-0.3c2.4-0.8,4.6-2.2,6.9-3.2
		c2.2-1,4.4-2,6.7-2.8c2.5-0.9,4.7-2.3,6.8-3.9c1.1-0.3,2.3-0.5,2.6-1.9c2.8-2.8,3.4-4,8.7-1.9c2,0.8,3.8,2,5.6,3.2
		c0.3,0.2,0.7,0.4,1,0.2c0.5-0.4,0-0.8-0.2-1.1c-1.6-1.8-3.7-2.7-5.7-3.9c-0.3-0.2-0.6-0.2-0.9-0.4c-0.3-0.2-0.9-0.3-0.8-0.9
		c0.1-0.6,0.7-0.4,1.1-0.4c2.2,0,4.3,0.3,6.2,1.3c0.3,0.1,0.7,0.3,1.1,0.3c0-0.5-0.3-0.7-0.7-0.9c-1.5-1.3-3.2-2.3-5.1-3
		c-0.8-0.3-1.5-0.8-0.6-1.7c2.7-2.9,5.5-5.9,8.3-8.8c3.4-3.5,6.9-6.8,9.9-10.6c2-2.5,3.1-5.3,1.8-8.6c-0.3-0.9-0.8-1.8-1.6-0.3
		c0,0.1-0.1,0.2-0.2,0.2c-2.3,0.6-1.7,2.2-1.2,3.7c0.4,1.2-0.3,2.2-1.2,2.9c-3.4,3.1-6.9,6.1-10.3,9.3c-2.7,2.4-5.4,4.8-8.2,7
		c-1.3,1-2.6,2-3.9,3c-1.5,1.1-3.2,0.7-4.9,0.3c-2-0.5-3.6-1.7-5.3-2.8c-2.5-1.5-5.1-2.4-8.1-2.1c-1.6,0.2-1.9-0.2-1.2-1.7
		c0.6-1.4,0.4-2.8,0.8-4.2c0.3-0.9,0.6-1.7,1.3-2.3c5.6-5.5,11.1-11.1,16.4-16.7c1.2-1.2,2.3-2.5,3.5-3.7c1-1,1.8-2.2,3.1-2.9
		c0.9-0.5,1.8-1.1,2.8-1.1c1.7,0,3.6,0.8,5.1,1.5c1.8,0.8,3.7,1.7,5.6,2.2c1,0.3,1.9,0.7,2.9,1.1c0.7,0.3,1.4,0.3,2.2,0.5
		c5.6,1.6,11.8,2.5,17.7,2.5c1.8,0,2,0.4,1.6,2.1c-0.8,3.9-1.5,7.6-1.8,11.5c-0.2,3.2-0.2,6.4,0.1,9.6c0.1,1.3,0.1,2.6,0.4,3.8
		c0.5,2.1,1.1,7.2,4.3,6.8c1.7-0.2,3.2-1,4.6-1.8c1.6-0.8,3.3-1.7,5.1-2.3c6.5-2.2,12.4,2,14.3,7.5c1.4,4.2,1,8.1-1.6,11.8
		c-2.5,3.7-8.5,5.6-12.7,4.3c-2.6-0.8-5.2-1.9-7.8-2.7c-1.2-0.4-2.6-0.4-3.7,0.3c-1.3,0.8-1.8,2.2-2.2,3.6c-0.2,0.5-0.2,1-0.3,1.4
		c-0.2,1-0.3,1.9-0.6,2.9c-0.2,0.9-0.2,1.7-0.3,2.5c-0.2,2.1-0.2,4.2-0.3,6.3c-0.2,2.9,0.4,5.6,0.8,8.4c0.1,2.4,1,4.6,1.5,6.9
		c0.1,0.2,0.1,0.4,0.1,0.6C83.4,340.4,9.7,266.2,9.7,175.2 M342.9,183.9c-0.1,1.5-0.2,3-0.3,4.4c-0.2,2.7-0.5,5.5-0.9,8.2
		c-0.7,5.4-1.7,10.8-2.9,16.1c-2.4,10.4-5.8,20.6-10.2,30.3c-4.3,9.6-9.5,18.8-15.6,27.4c-6,8.6-12.8,16.6-20.4,23.9
		c-7.5,7.3-15.7,13.9-24.5,19.7c-8.8,5.8-18.2,10.8-27.9,14.9c-9.9,4.1-20.2,7.3-30.8,9.4c-10.8,2.2-21.9,3.3-33,3.3
		c-0.1,0-0.1,0-0.2,0c-0.1,0-0.3,0-0.4,0c0,0,0-0.1,0-0.1c-0.4-1.6-0.7-3.2-1.1-4.7c-0.6-2.3-0.8-4.6-1-7c-0.4-4.3-0.2-8.6,0.4-12.9
		c0.2-1.4,0.2-2.8,0.6-4.2c0.7-2.6,1.7-3.3,4.3-2.6c2.6,0.7,5.1,2,7.8,2.7c2.2,0.6,4.3,0.6,6.5,0c2.4-0.6,4.6-1.8,6.3-3.5
		c3.6-3.6,4.8-8.1,3.5-13c-1.1-4.2-3.4-7.5-7.3-9.5c-2.5-1.3-5-1.5-7.8-0.9c-3,0.6-5.6,2.1-8.2,3.4c-3.2,1.6-4.3,0.9-5.1-2.6
		c-1.2-5.4-1.4-10.9-0.9-16.4c0.4-3.9,1.1-7.7,2.2-11.4c0.2-0.9,0.8-1.4,1.7-1.3c3.7,0.3,7.3-0.2,10.9-0.7c2.5-0.4,4.8-0.8,7.3-1.4
		c1-0.3,1.9-0.7,2.9-0.9c0.9-0.2,1.2-0.2,1.7,0.6c2.4,3,4.8,6,7.3,8.9c1.9,2.3,3.8,4.7,5.8,7c0.2,0.3,0.4,0.7,1,0.6
		c-0.4-2.4,0.4-4.6,0.7-6.8c0.2-1.2-0.1-1.9-1.2-2.6c-3.5-2.1-5-5.6-6.3-9.2c-0.3-0.8,0.2-1.3,0.9-1.6c4.5-1.9,8.8-4.2,12.9-6.9
		c1-0.7,2.1-0.2,2.7,1.1c0.5,1.1,0.9,2.3,1.2,3.5c0.6,1.9,1.6,3.6,3.1,4.9c1.1,1,1.8,2.1,2.2,3.6c0.3,0.9,0.5,1.8,2.3,1.2
		c2.7-0.9,5.2-2.2,7.7-3.4c0.8-0.4,1.9,0.2,2.7-0.8c0.5-0.7,0.5-0.9-0.1-1.4c-1.7-1.6-3.8-2.4-5.9-3.1c-3.5-1.3-6.6-3.3-9.2-6.1
		c-1.1-1.2-1.4-2.8-1.6-4.4c-0.1-1.4-0.2-2.8-0.2-4.1c0-1.1-0.4-2-1.2-2.4c-1.2-0.6-1.6-1.7-2-2.7c-0.9-2.4-4.5-5-6.9-4.6
		c-3.1,0.5-4.7-1.8-5.7-4.8c-1.3-3.8-0.9-7.6,1.8-10.9c1.1-1.3,2.4-2.3,3.9-2.9c3.2-1.2,6.5-1.1,9.7,0.1c4.2,1.6,4.7,4.6,4.5,9.2
		c-0.1,2.4-0.9,4.8-0.3,7.2c0.2,1,0.8,1.6,1.5,1.9c0.8,0.4,1.6,0.8,2.5,1.2c0.7,0.3,1.4,0.5,2.1,0.7c1,0.3,2.5,0.4,3.5,0
		c1-0.4,1.6-1.4,2.2-2.3c1.2-1.9,2.7-3.6,3.7-5.7c0.2-0.5,0.7-0.7,1.2-0.5c0.6,0.2,0.7,0.9,0.7,1.4c-0.2,1.4-0.2,2.8-0.1,4.3
		c0.1,2,1.4,2.7,2.7,3.6c1.3,0.9,2.1,0.7,2.9-0.7c0.9-1.4,1.7-2.9,2.9-4.1c0.3-0.3,0.5-0.8-0.1-1c-4.7-1.2-4.4-5.1-4.8-8.7
		c-0.4-3.6,1.3-6.5,2.5-9.7c0.3-0.7,0.5-1.4,0.7-2.1c0.2-0.7,0.5-1.2,1.3-1.1c0.9,0.1,0.8,0.8,0.7,1.3c-0.1,2.7-0.3,5.4-0.4,8.1
		c-0.1,1.8,0,3.6,0.1,5.4c0,0.6,0.2,1.3,0.8,1.5c0.7,0.2,0.4-0.7,0.7-1c0.7-0.7,1-1.7,1.7-2.4c0.8-0.9,1.9-1.2,3.1-1
		c-1.6-4.3-3.4-8.3-3.3-13c0.1-2.5,0.3-5.1-0.5-7.5c-0.5-1.1-1.7-1.9-1.3-3.4c0.7-3,0.9-6.1,1.3-9.2c0.1-0.7,0.5-0.7,1-0.7
		c1.5-0.1,2.8,0.6,4.3,0.9c2.7,0.4,5.4,1.5,8.1,1.6c4.4,0.1,8.9,0.6,13.3-0.4c1.3-0.3,2.7-0.5,4-0.9c2.9-0.7,4.6-2.5,2.9-5.9
		c-1.4-2.8-3.2-5.5-3.7-8.8c-0.8-5.2,1.3-9.6,5.6-11.9c4.2-2.3,8.7-2.9,13.3-0.2c5.6,3.1,7.2,9.2,5.7,14.5c-0.7,2.4-1.7,4.7-2.5,7
		c-0.9,2.5-0.4,3.7,1.9,4.9c2.2,1.1,4.5,1.7,6.9,1.8c4.6,0.2,9.4,0.1,14.1-0.2c2.4-0.2,4.8-0.4,7.3-0.6c0.5-0.1,1.4-0.4,1.9,0.1
		C343.5,181.3,342.9,183.1,342.9,183.9"/>
</g>
<g>
	<g>
		<path class="st1" d="M641.9,247.1l-4.6,2.2c-2.2,1.1-4.8,1-6.9-0.1l-3-1.6c-1.2-0.6-2.5,0.2-2.5,1.5v43.4c0,1.3,0.4,2.7,1.3,3.7
			c1.5,1.8,3.4,3.1,6,3.9c1.5,0.5,3-0.7,3-2.2v-13.7l10.3-4.8c1.3-0.6,1.7-2.3,0.8-3.5l-3.2-3.8c-1.3-1.6-3.8-1.8-5.4-0.4l-2.1,1.7
			v-12.6l4.9-2.8c1.4-0.8,2.9-1.2,4.5-1.2h3.5c1.8,0,3.2-1.7,2.7-3.5c-0.7-2.6-2.5-4.7-5.6-6.2C644.3,246.6,643,246.5,641.9,247.1"
			/>
		<path class="st1" d="M677.8,250c-3.2-2.4-7.2-3.3-11.1-2.7c-1.3,0.2-2.7,0.4-3.9,0.5c-2.8,0.4-5.3,2.2-6.5,4.9
			c-2.8,6.2-4.7,15.8-4.3,23.1c0.2,10.5,2.8,19.5,13.7,23.1c4,1.3,8.5,1,12-1.3c5.1-3.3,8-9.2,8.8-23
			C686.8,264.1,684.8,255.3,677.8,250 M675.9,277.7c-1,5.4-2.8,9.5-5.1,12.7c-0.9,1.2-2.7,1.5-3.8,0.5c-1.7-1.4-3-3.4-3.8-6
			c-0.2-0.7-0.3-1.5-0.3-2.2v-13c0-1.9,0.9-3.6,2.4-4.8l1.2-1c1.1-0.8,2-1.9,2.6-3.1l2-4.1c0.4-0.8,1.6-0.9,2.1-0.1
			C676.2,261.7,677.1,268.8,675.9,277.7"/>
		<path class="st1" d="M911.3,250c-3.2-2.4-7.2-3.3-11.1-2.7c-1.3,0.2-2.7,0.4-3.9,0.5c-2.9,0.4-5.3,2.2-6.5,4.9
			c-2.8,6.2-4.7,15.8-4.3,23.1c0.2,10.5,2.8,19.5,13.7,23.1c4,1.3,8.5,1,12-1.3c5.1-3.3,8-9.2,8.8-23
			C920.3,264.1,918.3,255.3,911.3,250 M909.4,277.7c-1,5.4-2.8,9.5-5.1,12.7c-0.9,1.2-2.7,1.5-3.8,0.5c-1.7-1.4-3-3.4-3.8-6
			c-0.2-0.7-0.3-1.5-0.3-2.2v-13c0-1.9,0.9-3.6,2.4-4.8l1.2-1c1.1-0.8,2-1.9,2.6-3.1l2-4.1c0.4-0.8,1.6-0.9,2.1-0.1
			C909.7,261.7,910.6,268.8,909.4,277.7"/>
		<path class="st1" d="M696.6,248c1.1,0.6,2.7,1.5,3.9,2.2c1.4,0.8,2.2,2.2,2.2,3.8v33.1c0,0.7,0.3,1.4,0.8,1.9l2.5,2.5
			c0.5,0.5,1.3,0.5,1.8,0c1-1,2.5-2.5,2.6-3.7c0-0.5,0-30.8,0-38.8c0-1,0.9-1.8,1.9-1.6l5.9,0.9c1.5,0.2,2.7,1.5,2.7,3.1v38.1
			c-0.5,2.5-1.3,4.6-2.6,6.4c-2.7,3.8-7.8,5.3-12.2,3.9c-3-0.9-5.5-2.3-7.7-3.8c-3.2-2.2-5.3-5.7-5.9-9.5l-0.6-4
			c-0.1-0.5-0.1-0.9-0.1-1.4v-29.5c0-1.4,0.8-2.8,2-3.5C694.6,247.5,695.7,247.5,696.6,248"/>
		<path class="st1" d="M760.7,252.1v46c0,1.5-1.2,2.7-2.6,2.7c-3.9,0-7.4-2.1-9.2-5.5l-10.3-18.8v18.9c0,1.9-1.5,3.4-3.4,3.4h-2.3
			c-1.7,0-3.1-1.4-3.1-3.1v-43.4c0-2,1.6-3.5,3.5-3.5h1.8c2.6,0,4.9,1.6,5.9,4l8.9,22c0.1,0.2,0.5,0.2,0.5-0.1v-22.5
			c0-1.9,1.5-3.4,3.4-3.4h3.7C759.1,248.8,760.7,250.3,760.7,252.1"/>
		<path class="st1" d="M955.4,248.8v49.6c0,1.3-1.1,2.4-2.4,2.4h-2.3c-2.6,0-5-1.4-6.3-3.7l-11.2-20.5v22c0,0.2-0.1,0.3-0.3,0.3
			c0,0-9.6,0.5-8.6,0c1-0.5,0-49.6,0-49.6c0-0.2,0.2-0.4,0.4-0.4h7.2c1.2,0,2.3,0.7,2.7,1.8l10.2,25.2v-27c0,0,0,0,0,0H955.4z"/>
		<path class="st1" d="M786.7,249.8c-2.8-1.8-6.3-2.3-9.6-1.4l-9.2,2.4c-0.8,0.2-1.3,0.9-1.3,1.7v43.1c0,0.5,0.3,0.9,0.7,1.1
			c2.3,1,4.6,2.1,6.9,3.1c1.5,0.6,3.2,0.5,4.5-0.4c10.8-7.5,16.7-18,16.5-32C794.7,258.5,791.6,252.9,786.7,249.8 M786,267.7
			c0,3.9-1,7.7-3.2,10.9c-1.6,2.3-3.5,4.4-5.8,6.3c-0.2,0.2-0.5,0-0.5-0.2v-24.8c0-0.1,0.1-0.2,0.1-0.2l7.5-3.6
			c0.8-0.4,1.8,0.2,1.8,1.1V267.7z"/>
		<path class="st1" d="M825.9,254.6c-0.4-2.4-2.3-4.3-4.7-4.8l-10.6-2.2c-0.7-0.1-1.3,0.3-1.5,0.9l-8.9,31.7c-0.1,0.4-0.5,0.7-1,0.7
			l-3.9,1.3l3.8,1.6c0.2,0.2,0.2,0.4,0.1,0.6l-3.4,9.3c-0.3,0.7,0,1.5,0.6,1.9c2.2,1.6,7.3,5.1,7.5,4.5c2.4-5.9,2.3-14.2,17.5-13.8
			l1.6,9.1c0.2,1,0.9,1.7,1.9,1.9l7.2,1.5c1.1,0.2,2-0.7,1.8-1.8L825.9,254.6z M817.5,276.9l-5.9,1c-0.2,0-0.4-0.2-0.3-0.4l4.9-12
			c0-0.1,0.2-0.1,0.2,0l2.5,9.2C819.2,275.7,818.5,276.7,817.5,276.9"/>
		<path class="st1" d="M863.5,247.8c-0.2-0.5-0.7-0.8-1.2-0.7c-5.2,1.2-30.3,6.9-32.2,7.1c-1.6,0.2,2,5.1,4,7.6
			c0.7,0.9,1.9,1.3,3,0.9c1.3-0.4,3.2-0.9,5.4-1.6v37c0,0.3,0.2,0.6,0.6,0.6c2.4,0.2,11.3,0.7,10.6,0c-0.8-0.8,0-40.7,0-40.7
			c5.8-1.5,10.9-2.6,11.6-2.2C866.5,256.9,864.3,250.2,863.5,247.8"/>
		<path class="st1" d="M870.5,248c-0.6,0-1,0.5-1,1.1c0.2,7.1,1.4,48.1,0,48.9c-1.6,0.8,10.1,2.1,10.1,2.1c0.5,0.1,0.9-0.3,0.9-0.7
			c-0.3-6.8-2.3-50,0-50.7C882.5,248.1,873.7,248,870.5,248"/>
	</g>
	<rect x="624.8" y="317" class="st2" width="330.5" height="7.4"/>
</g>
<g>
	<path class="st2" d="M478.4,112.8c0,0,48.4-39.9-7.4-77.8c-7.1-4.8-15.6-7.3-24.2-7.3h-34.5v174.9h39.5c2.7,0,5.4-0.7,7.6-1.2
		C474.4,198,533.6,162.3,478.4,112.8 M441.6,52.1c0,0,29.7-3.4,28.6,25.3c-1.2,28.7-28.6,23.6-28.6,23.6V52.1z M472.6,152.3
		c-3.2,33-31,27.7-31,27.7v-57.4C441.6,122.6,475.9,118.7,472.6,152.3"/>
	<path class="st2" d="M589.6,171c0,0-10.5,11-30.6,8.5c-20.3-2.4-17.3-29-17.3-29l56.4-2.7c0,0-1.5-57.5-30.9-64.3
		c-29.3-6.7-41.2,16.9-41.2,16.9s-12.7,20.3-11.3,51.4c1.3,31.1,21.3,46.6,21.3,46.6s19.8,10.2,35.3,5.4
		c15.5-4.8,29.2-14.4,29.2-14.4L589.6,171z M556.5,103.1c12.9,1.9,12.9,25.2,12.9,25.2L542,130C542,130,543.6,101.2,556.5,103.1"/>
	<polygon class="st2" points="612.6,202.5 639.6,209.5 639.6,30.6 615.5,20.8 	"/>
	<path class="st2" d="M734.5,110.6c0,0,2-27.3-57-30.5v24.2c0,0,36.3-2.3,31.1,19.9c0,0-35.5,5.7-50.7,27.4
		c-3.8,5.5-5.3,12.3-4.4,18.9c1.5,10.8,6,28.6,20.3,33.7c21,7.5,35.3-10.1,35.3-10.1l2.1,17.8l26.8-8.6L734.5,110.6z M708.6,168.5
		c0,2.5-0.8,4.9-2.4,6.8c-2.3,2.8-6.6,6.5-14.5,9c-11.9,3.8-12.8-13.6-12.8-19.6c0-1.6,0.6-3.1,1.6-4.4c2.6-3.2,9.6-9.1,27.2-16
		c0.4-0.1,0.8,0.1,0.8,0.5V168.5z"/>
	<path class="st2" d="M997.5,110.6c0,0,2-27.3-57-30.5v24.2c0,0,36.3-2.3,31.1,19.9c0,0-35.5,5.7-50.7,27.4
		c-3.8,5.5-5.3,12.3-4.4,18.9c1.5,10.8,6,28.6,20.3,33.7c21,7.5,35.3-10.1,35.3-10.1l2.1,17.8l26.8-8.6L997.5,110.6z M971.5,168.5
		c0,2.5-0.8,4.9-2.4,6.8c-2.3,2.8-6.6,6.5-14.5,9c-11.9,3.8-12.8-13.6-12.8-19.6c0-1.6,0.6-3.1,1.6-4.4c2.6-3.2,9.6-9.1,27.2-16
		c0.4-0.1,0.8,0.1,0.8,0.5V168.5z"/>
	<path class="st2" d="M1155.7,110.6c0,0,2-27.3-57-30.5v24.2c0,0,36.3-2.3,31.1,19.9c0,0-35.5,5.7-50.7,27.4
		c-3.8,5.5-5.3,12.3-4.4,18.9c1.5,10.8,6,28.6,20.3,33.7c21,7.5,35.3-10.1,35.3-10.1l2.1,17.8l26.8-8.6L1155.7,110.6z M1129.7,168.5
		c0,2.5-0.8,4.9-2.4,6.8c-2.3,2.8-6.6,6.5-14.5,9c-11.9,3.8-12.8-13.6-12.8-19.6c0-1.6,0.6-3.1,1.6-4.4c2.6-3.2,9.6-9.1,27.2-16
		c0.4-0.1,0.8,0.1,0.8,0.5V168.5z"/>
	<path class="st2" d="M750.6,82l5.5,122.9l28.5-2.3l-1.7-85.1c0-1.5,0.8-2.8,2.1-3.5c4.9-2.4,17-7.5,23.3-3.7c1.7,1,2.7,2.9,2.7,4.8
		v85.4l27.9,0.3V110c0-3.2,0-4.4-1-7.5c-2.6-7.9-10.1-22.8-27.8-19.4c0,0-9.2,1.2-27.4,11.1l-0.1-14.1L750.6,82z"/>
	<path class="st2" d="M913.8,85.7h-21.9l-0.2-32.4l-27.1,9.2l0,23.3h-14.4v21.7h14.4l0,44.6h-0.3v32.1c0,0,0.2,11.7,25.7,28.6
		l19.8-20.1l-1.6-1.3l-4.3-3.4l-4.8-3.8c-1.7-1.3-3.1-2.9-4.3-4.7l-0.2-0.4l-0.3-0.5c-1.2-1.7-1.8-3.8-1.8-5.9v-4.2
		c-0.2-4.3-0.3-10.1-0.4-16.4c-0.3-19.5-0.4-44.1-0.4-44.1l22.2-0.2V85.7z"/>
	<path class="st2" d="M1046.5,204l-29.7-1.7l0.6-127.7l29.2,3.6v14c0,0,11.9-11.5,28-13.8l8.1,24.4c0,0-26.9,3.5-37,19.4L1046.5,204
		z"/>
</g>
</svg>
